<?xml version="1.0" encoding="utf-8"?>
<svg viewBox="69.868 151.579 202.5 69.079" width="150.25" height="50.54" xmlns="http://www.w3.org/2000/svg">
  <defs>
    <clipPath id="16cad4b32e">
      <path d="M 75.417969 158.917969 L 133.300781 158.917969 L 133.300781 216.804688 L 75.417969 216.804688 Z M 75.417969 158.917969 " clip-rule="nonzero"/>
    </clipPath>
    <clipPath id="ecac6e8eef">
      <path d="M 90.136719 163.25 L 120.886719 163.25 L 120.886719 212.75 L 90.136719 212.75 Z M 90.136719 163.25 " clip-rule="nonzero"/>
    </clipPath>
  </defs>
  <g clip-path="url(#16cad4b32e)" transform="matrix(1, 0, 0, 1, 7.105427357601002e-15, 7.105427357601002e-15)">
    <path fill="#1e3d59" d="M 75.417969 158.917969 L 133.300781 158.917969 L 133.300781 216.804688 L 75.417969 216.804688 Z M 75.417969 158.917969 " fill-opacity="1" fill-rule="nonzero"/>
  </g>
  <g clip-path="url(#ecac6e8eef)" transform="matrix(1, 0, 0, 1, 7.105427357601002e-15, 7.105427357601002e-15)">
    <path fill="#ffffff" d="M 120.679688 187.859375 L 96.070312 163.25 L 90.269531 169.054688 L 109.074219 187.859375 L 90.269531 206.664062 L 96.070312 212.46875 Z M 120.679688 187.859375 " fill-opacity="1" fill-rule="nonzero"/>
  </g>
  <g fill="#000000" fill-opacity="1" transform="matrix(1, 0, 0, 1, 7.105427357601002e-15, 7.105427357601002e-15)">
    <g transform="translate(139.876899, 190.45115)">
      <g>
        <path d="M 2.9375 -29.40625 L 11.25 -29.40625 L 11.25 -6.59375 L 25.28125 -6.59375 L 25.28125 0 L 2.9375 0 Z M 2.9375 -29.40625 "/>
      </g>
    </g>
  </g>
  <g fill="#000000" fill-opacity="1" transform="matrix(1, 0, 0, 1, 7.105427357601002e-15, 7.105427357601002e-15)">
    <g transform="translate(165.4969, 190.45115)">
      <g>
        <path d="M 17.765625 0.59375 C 14.660156 0.59375 11.867188 -0.0625 9.390625 -1.375 C 6.910156 -2.695312 4.960938 -4.519531 3.546875 -6.84375 C 2.128906 -9.164062 1.421875 -11.785156 1.421875 -14.703125 C 1.421875 -17.609375 2.128906 -20.222656 3.546875 -22.546875 C 4.960938 -24.878906 6.910156 -26.703125 9.390625 -28.015625 C 11.867188 -29.328125 14.660156 -29.984375 17.765625 -29.984375 C 20.867188 -29.984375 23.660156 -29.328125 26.140625 -28.015625 C 28.617188 -26.703125 30.566406 -24.878906 31.984375 -22.546875 C 33.398438 -20.222656 34.109375 -17.609375 34.109375 -14.703125 C 34.109375 -11.785156 33.398438 -9.164062 31.984375 -6.84375 C 30.566406 -4.519531 28.617188 -2.695312 26.140625 -1.375 C 23.660156 -0.0625 20.867188 0.59375 17.765625 0.59375 Z M 17.765625 -6.296875 C 19.242188 -6.296875 20.585938 -6.644531 21.796875 -7.34375 C 23.003906 -8.050781 23.957031 -9.039062 24.65625 -10.3125 C 25.351562 -11.582031 25.703125 -13.046875 25.703125 -14.703125 C 25.703125 -16.347656 25.351562 -17.804688 24.65625 -19.078125 C 23.957031 -20.359375 23.003906 -21.347656 21.796875 -22.046875 C 20.585938 -22.742188 19.242188 -23.09375 17.765625 -23.09375 C 16.285156 -23.09375 14.941406 -22.742188 13.734375 -22.046875 C 12.523438 -21.347656 11.570312 -20.359375 10.875 -19.078125 C 10.175781 -17.804688 9.828125 -16.347656 9.828125 -14.703125 C 9.828125 -13.046875 10.175781 -11.582031 10.875 -10.3125 C 11.570312 -9.039062 12.523438 -8.050781 13.734375 -7.34375 C 14.941406 -6.644531 16.285156 -6.296875 17.765625 -6.296875 Z M 17.765625 -6.296875 "/>
      </g>
    </g>
  </g>
  <g fill="#000000" fill-opacity="1" transform="matrix(1, 0, 0, 1, 7.105427357601002e-15, 7.105427357601002e-15)">
    <g transform="translate(201.028891, 190.45115)">
      <g>
        <path d="M 22.640625 -15.328125 L 29.984375 -15.328125 L 29.984375 -3.15625 C 28.304688 -1.945312 26.375 -1.019531 24.1875 -0.375 C 22.007812 0.269531 19.828125 0.59375 17.640625 0.59375 C 14.554688 0.59375 11.78125 -0.0546875 9.3125 -1.359375 C 6.851562 -2.660156 4.921875 -4.472656 3.515625 -6.796875 C 2.117188 -9.128906 1.421875 -11.765625 1.421875 -14.703125 C 1.421875 -17.640625 2.117188 -20.269531 3.515625 -22.59375 C 4.921875 -24.914062 6.867188 -26.726562 9.359375 -28.03125 C 11.859375 -29.332031 14.675781 -29.984375 17.8125 -29.984375 C 20.550781 -29.984375 23.007812 -29.519531 25.1875 -28.59375 C 27.375 -27.675781 29.195312 -26.347656 30.65625 -24.609375 L 25.375 -19.828125 C 23.382812 -22.003906 21.003906 -23.09375 18.234375 -23.09375 C 15.710938 -23.09375 13.679688 -22.328125 12.140625 -20.796875 C 10.597656 -19.273438 9.828125 -17.242188 9.828125 -14.703125 C 9.828125 -13.078125 10.175781 -11.625 10.875 -10.34375 C 11.570312 -9.070312 12.550781 -8.078125 13.8125 -7.359375 C 15.070312 -6.648438 16.515625 -6.296875 18.140625 -6.296875 C 19.734375 -6.296875 21.234375 -6.617188 22.640625 -7.265625 Z M 22.640625 -15.328125 "/>
      </g>
    </g>
  </g>
  <g fill="#000000" fill-opacity="1" transform="matrix(1, 0, 0, 1, 7.105427357601002e-15, 7.105427357601002e-15)">
    <g transform="translate(233.368886, 190.45115)">
      <g>
        <path d="M 17.765625 0.59375 C 14.660156 0.59375 11.867188 -0.0625 9.390625 -1.375 C 6.910156 -2.695312 4.960938 -4.519531 3.546875 -6.84375 C 2.128906 -9.164062 1.421875 -11.785156 1.421875 -14.703125 C 1.421875 -17.609375 2.128906 -20.222656 3.546875 -22.546875 C 4.960938 -24.878906 6.910156 -26.703125 9.390625 -28.015625 C 11.867188 -29.328125 14.660156 -29.984375 17.765625 -29.984375 C 20.867188 -29.984375 23.660156 -29.328125 26.140625 -28.015625 C 28.617188 -26.703125 30.566406 -24.878906 31.984375 -22.546875 C 33.398438 -20.222656 34.109375 -17.609375 34.109375 -14.703125 C 34.109375 -11.785156 33.398438 -9.164062 31.984375 -6.84375 C 30.566406 -4.519531 28.617188 -2.695312 26.140625 -1.375 C 23.660156 -0.0625 20.867188 0.59375 17.765625 0.59375 Z M 17.765625 -6.296875 C 19.242188 -6.296875 20.585938 -6.644531 21.796875 -7.34375 C 23.003906 -8.050781 23.957031 -9.039062 24.65625 -10.3125 C 25.351562 -11.582031 25.703125 -13.046875 25.703125 -14.703125 C 25.703125 -16.347656 25.351562 -17.804688 24.65625 -19.078125 C 23.957031 -20.359375 23.003906 -21.347656 21.796875 -22.046875 C 20.585938 -22.742188 19.242188 -23.09375 17.765625 -23.09375 C 16.285156 -23.09375 14.941406 -22.742188 13.734375 -22.046875 C 12.523438 -21.347656 11.570312 -20.359375 10.875 -19.078125 C 10.175781 -17.804688 9.828125 -16.347656 9.828125 -14.703125 C 9.828125 -13.046875 10.175781 -11.582031 10.875 -10.3125 C 11.570312 -9.039062 12.523438 -8.050781 13.734375 -7.34375 C 14.941406 -6.644531 16.285156 -6.296875 17.765625 -6.296875 Z M 17.765625 -6.296875 "/>
      </g>
    </g>
  </g>
  <g fill="#000000" fill-opacity="1" transform="matrix(1, 0, 0, 1, 7.105427357601002e-15, 7.105427357601002e-15)">
    <g transform="translate(139.876899, 211.698809)">
      <g>
        <path d="M 5.625 -11.484375 L 5.625 -8.25 L 12.109375 -8.25 L 12.109375 -5.046875 L 5.625 -5.046875 L 5.625 0 L 1.46875 0 L 1.46875 -14.703125 L 13 -14.703125 L 13 -11.484375 Z M 5.625 -11.484375 "/>
      </g>
    </g>
  </g>
  <g fill="#000000" fill-opacity="1" transform="matrix(1, 0, 0, 1, 7.105427357601002e-15, 7.105427357601002e-15)">
    <g transform="translate(153.358953, 211.698809)">
      <g>
        <path d="M 1.28125 -15.578125 L 5.265625 -15.578125 L 5.265625 0 L 1.28125 0 Z M 1.28125 -15.578125 "/>
      </g>
    </g>
  </g>
  <g fill="#000000" fill-opacity="1" transform="matrix(1, 0, 0, 1, 7.105427357601002e-15, 7.105427357601002e-15)">
    <g transform="translate(159.931981, 211.698809)">
      <g>
        <path d="M 7 0.1875 C 5.78125 0.1875 4.675781 -0.0625 3.6875 -0.5625 C 2.707031 -1.070312 1.941406 -1.773438 1.390625 -2.671875 C 0.835938 -3.566406 0.5625 -4.582031 0.5625 -5.71875 C 0.5625 -6.832031 0.835938 -7.835938 1.390625 -8.734375 C 1.941406 -9.628906 2.703125 -10.328125 3.671875 -10.828125 C 4.648438 -11.328125 5.757812 -11.578125 7 -11.578125 C 8.226562 -11.578125 9.332031 -11.328125 10.3125 -10.828125 C 11.289062 -10.328125 12.050781 -9.628906 12.59375 -8.734375 C 13.144531 -7.847656 13.421875 -6.84375 13.421875 -5.71875 C 13.421875 -4.582031 13.144531 -3.566406 12.59375 -2.671875 C 12.050781 -1.773438 11.289062 -1.070312 10.3125 -0.5625 C 9.332031 -0.0625 8.226562 0.1875 7 0.1875 Z M 7 -2.984375 C 7.695312 -2.984375 8.269531 -3.222656 8.71875 -3.703125 C 9.164062 -4.191406 9.390625 -4.863281 9.390625 -5.71875 C 9.390625 -6.550781 9.164062 -7.207031 8.71875 -7.6875 C 8.269531 -8.164062 7.695312 -8.40625 7 -8.40625 C 6.289062 -8.40625 5.710938 -8.164062 5.265625 -7.6875 C 4.816406 -7.207031 4.59375 -6.550781 4.59375 -5.71875 C 4.59375 -4.863281 4.816406 -4.191406 5.265625 -3.703125 C 5.710938 -3.222656 6.289062 -2.984375 7 -2.984375 Z M 7 -2.984375 "/>
      </g>
    </g>
  </g>
  <g fill="#000000" fill-opacity="1" transform="matrix(1, 0, 0, 1, 7.105427357601002e-15, 7.105427357601002e-15)">
    <g transform="translate(173.918034, 211.698809)">
      <g>
        <path d="M 20.140625 -11.375 L 16.078125 0 L 12.21875 0 L 10.078125 -6.1875 L 7.859375 0 L 3.984375 0 L -0.0625 -11.375 L 3.71875 -11.375 L 6.046875 -4.5 L 8.46875 -11.375 L 11.859375 -11.375 L 14.21875 -4.4375 L 16.625 -11.375 Z M 20.140625 -11.375 "/>
      </g>
    </g>
  </g>
</svg>